<svg viewBox="0 0 1200 900" fill="none" stroke-linecap="square" stroke-miterlimit="10" xmlns="http://www.w3.org/2000/svg"><path fill="#fcfcfc" d="M0 0h1200v900H0V0z"></path><path stroke="#303030" stroke-linecap="butt" d="M96.5 804.5h1059"></path><path stroke="#c9c9c9" stroke-linecap="butt" d="M96.5 669.5h1059m-1059-134h1059m-1059-134h1059m-1059-135h1059m-1059-134h1059"></path><path clip-path="url(#id_0)" d="M547 804H254V161a2 2 0 012-2h289a2 2 0 012 2z"></path><path fill="#001c47" clip-path="url(#id_0)" d="M547 804H254V161a2 2 0 012-2h289a2 2 0 012 2z"></path><path clip-path="url(#id_0)" d="M998 804H705V296a2 2 0 012-2h289a2 2 0 012 2z"></path><path fill="#001c47" clip-path="url(#id_0)" d="M998 804H705V296a2 2 0 012-2h289a2 2 0 012 2z"></path><path fill="#001c47" d="M83.125 805.219q0 3.812-1.313 5.672-1.296 1.843-4.062 1.843-2.734 0-4.047-1.812-1.312-1.813-1.36-5.406v-2.891q0-3.766 1.298-5.594 1.312-1.828 4.093-1.828 2.75 0 4.047 1.766 1.297 1.765 1.344 5.437v2.813zm-2.172-2.969q0-2.75-.781-4-.766-1.266-2.438-1.266-1.671 0-2.437 1.25-.75 1.25-.781 3.86v3.468q0 2.766.796 4.094.813 1.313 2.438 1.313 1.61 0 2.39-1.235.782-1.25.813-3.922v-3.562zM66.547 678.2h-2.188v-14.453L60 665.357v-1.97l6.203-2.328h.344V678.2zm16.578-7.281q0 3.812-1.313 5.672-1.296 1.843-4.062 1.843-2.734 0-4.047-1.812-1.312-1.813-1.36-5.406v-2.891q0-3.766 1.298-5.594 1.312-1.828 4.093-1.828 2.75 0 4.047 1.766 1.297 1.765 1.344 5.437v2.813zm-2.172-2.969q0-2.75-.781-4-.766-1.266-2.438-1.266-1.671 0-2.437 1.25-.75 1.25-.781 3.86v3.469q0 2.765.796 4.093.813 1.313 2.438 1.313 1.61 0 2.39-1.235.782-1.25.813-3.921v-3.563zM70.594 543.9H59.422v-1.563l5.906-6.562q1.313-1.484 1.813-2.406.5-.938.5-1.938 0-1.344-.813-2.187-.812-.86-2.156-.86-1.625 0-2.516.922-.89.922-.89 2.563h-2.172q0-2.36 1.515-3.813 1.516-1.453 4.063-1.453 2.375 0 3.75 1.25 1.39 1.25 1.39 3.313 0 2.53-3.203 6l-4.578 4.968h8.563v1.766zm12.531-7.281q0 3.812-1.313 5.672-1.296 1.843-4.062 1.843-2.734 0-4.047-1.812-1.312-1.813-1.36-5.406v-2.891q0-3.766 1.298-5.594 1.312-1.828 4.093-1.828 2.75 0 4.047 1.766 1.297 1.765 1.344 5.437v2.813zm-2.172-2.969q0-2.75-.781-4-.766-1.266-2.438-1.266-1.671 0-2.437 1.25-.75 1.25-.781 3.86v3.468q0 2.766.796 4.094.813 1.313 2.438 1.313 1.61 0 2.39-1.235.782-1.25.813-3.922v-3.562zM62.578 400.006h1.625q1.531-.015 2.406-.797.891-.796.891-2.125 0-3-3-3-1.406 0-2.25.813-.828.797-.828 2.11H59.25q0-2.016 1.484-3.36 1.485-1.344 3.766-1.344 2.422 0 3.781 1.281 1.375 1.266 1.375 3.547 0 1.11-.719 2.157-.718 1.046-1.953 1.562 1.407.438 2.172 1.469.766 1.031.766 2.515 0 2.297-1.5 3.657-1.5 1.343-3.906 1.343-2.407 0-3.907-1.296-1.5-1.313-1.5-3.438h2.172q0 1.344.875 2.156.89.813 2.36.813 1.578 0 2.406-.813.828-.828.828-2.375 0-1.484-.922-2.281-.906-.797-2.625-.813h-1.625v-1.78zm20.547 2.313q0 3.812-1.313 5.672-1.296 1.843-4.062 1.843-2.734 0-4.047-1.812-1.312-1.813-1.36-5.406v-2.891q0-3.766 1.298-5.594 1.312-1.828 4.093-1.828 2.75 0 4.047 1.766 1.297 1.765 1.344 5.437v2.813zm-2.172-2.969q0-2.75-.781-4-.766-1.266-2.438-1.266-1.671 0-2.437 1.25-.75 1.25-.781 3.86v3.469q0 2.765.796 4.093.813 1.313 2.438 1.313 1.61 0 2.39-1.235.782-1.25.813-3.921v-3.563zM68.578 269.566h2.36v1.765h-2.36v3.969h-2.187v-3.969h-7.766v-1.265l7.64-11.828h2.313v11.328zm-7.5 0h5.313v-8.36l-.25.469-5.063 7.89zm22.047-1.547q0 3.812-1.313 5.672-1.296 1.843-4.062 1.843-2.734 0-4.047-1.812-1.312-1.813-1.36-5.406v-2.891q0-3.766 1.298-5.594 1.312-1.828 4.093-1.828 2.75 0 4.047 1.766 1.297 1.765 1.344 5.437v2.813zm-2.172-2.969q0-2.75-.781-4-.766-1.266-2.438-1.266-1.671 0-2.437 1.25-.75 1.25-.781 3.86v3.469q0 2.765.796 4.093.813 1.313 2.438 1.313 1.61 0 2.39-1.235.782-1.25.813-3.921v-3.563zM60.422 132.438l.86-8.5h8.75v2h-6.907l-.516 4.656q1.25-.735 2.844-.735 2.328 0 3.703 1.547 1.375 1.531 1.375 4.156 0 2.641-1.422 4.157-1.421 1.515-3.984 1.515-2.266 0-3.703-1.25-1.422-1.265-1.61-3.468h2.047q.203 1.453 1.047 2.203.844.75 2.219.75 1.516 0 2.375-1.031.86-1.032.86-2.86 0-1.703-.938-2.734-.922-1.047-2.469-1.047-1.422 0-2.234.625l-.563.469-1.734-.453zm22.703 1.28q0 3.813-1.313 5.673-1.296 1.843-4.062 1.843-2.734 0-4.047-1.812-1.312-1.813-1.36-5.406v-2.891q0-3.766 1.298-5.594 1.312-1.828 4.093-1.828 2.75 0 4.047 1.766 1.297 1.765 1.344 5.437v2.813zm-2.172-2.968q0-2.75-.781-4-.766-1.266-2.438-1.266-1.671 0-2.437 1.25-.75 1.25-.781 3.86v3.469q0 2.765.796 4.093.813 1.313 2.438 1.313 1.61 0 2.39-1.235.782-1.25.813-3.922v-3.562zm159.759 706.39h-9.25v7.563h10.75V847H228.65v-21.328h13.406v2.312h-10.594v6.86h9.25v2.297zm9.844-.202l3.515-5.782h3.157l-5.188 7.828 5.344 8.016h-3.125l-3.672-5.938-3.656 5.938h-3.156l5.359-8.016-5.188-7.828h3.125l3.485 5.782zm23.062 2.312q0 3.625-1.656 5.844-1.656 2.203-4.484 2.203-2.875 0-4.532-1.828v7.625h-2.718v-21.938h2.484l.125 1.75q1.656-2.047 4.61-2.047 2.843 0 4.5 2.157 1.671 2.14 1.671 5.984v.25zm-2.703-.313q0-2.671-1.156-4.218-1.14-1.563-3.125-1.563-2.469 0-3.688 2.188v7.562q1.22 2.172 3.72 2.172 1.952 0 3.093-1.547 1.156-1.547 1.156-4.593zm12.89 8.36q-3.218 0-5.25-2.11-2.015-2.125-2.015-5.671v-.5q0-2.36.906-4.203.907-1.86 2.516-2.907 1.625-1.047 3.516-1.047 3.078 0 4.797 2.032 1.718 2.03 1.718 5.828v1.125H279.26q.047 2.343 1.36 3.797 1.312 1.437 3.343 1.437 1.422 0 2.422-.578 1-.594 1.75-1.563l1.656 1.297q-2 3.063-5.984 3.063zm-.327-14.219q-1.64 0-2.766 1.203-1.11 1.188-1.375 3.344h7.938v-.203q-.11-2.063-1.11-3.203-1-1.14-2.687-1.14zm17.422.5q-.625-.094-1.344-.094-2.656 0-3.61 2.266V847h-2.718v-15.844h2.64l.047 1.828q1.328-2.125 3.781-2.125.782 0 1.204.203v2.516zM306.18 847h-2.718v-15.844h2.719V847zm-2.937-20.047q0-.672.407-1.125.406-.453 1.187-.453.797 0 1.203.453.422.453.422 1.125 0 .656-.422 1.094-.406.437-1.203.437-.781 0-1.187-.437-.407-.438-.407-1.094zm13.563 20.344q-3.219 0-5.25-2.11-2.016-2.125-2.016-5.671v-.5q0-2.36.906-4.203.907-1.86 2.516-2.907 1.625-1.047 3.516-1.047 3.078 0 4.797 2.032 1.718 2.03 1.718 5.828v1.125H312.26q.047 2.343 1.36 3.797 1.312 1.437 3.343 1.437 1.422 0 2.422-.578 1-.594 1.75-1.563l1.656 1.297q-2 3.063-5.984 3.063zm-.328-14.219q-1.64 0-2.766 1.203-1.11 1.188-1.375 3.344h7.938v-.203q-.11-2.063-1.11-3.203-1-1.14-2.687-1.14zm12.312-1.922l.094 1.985q1.812-2.282 4.75-2.282 5.016 0 5.062 5.672V847h-2.703v-10.484q-.015-1.72-.797-2.532-.765-.828-2.39-.828-1.313 0-2.313.703-1 .703-1.547 1.844V847h-2.718v-15.844h2.562zm20.797 13.922q1.453 0 2.531-.875 1.094-.875 1.203-2.203h2.563q-.063 1.36-.938 2.594-.859 1.234-2.312 1.968-1.438.735-3.047.735-3.234 0-5.156-2.156-1.906-2.172-1.906-5.922v-.453q0-2.313.843-4.11.86-1.812 2.438-2.797 1.594-1 3.765-1 2.672 0 4.438 1.594 1.766 1.594 1.875 4.14h-2.563q-.109-1.53-1.156-2.515-1.047-1-2.594-1-2.062 0-3.203 1.5-1.125 1.485-1.125 4.297v.5q0 2.75 1.125 4.234 1.125 1.47 3.22 1.47zm16.219 2.219q-3.219 0-5.25-2.11-2.016-2.125-2.016-5.671v-.5q0-2.36.906-4.203.907-1.86 2.516-2.907 1.625-1.047 3.516-1.047 3.078 0 4.797 2.032 1.718 2.03 1.718 5.828v1.125H361.26q.047 2.343 1.36 3.797 1.312 1.437 3.343 1.437 1.422 0 2.422-.578 1-.594 1.75-1.563l1.656 1.297q-2 3.063-5.984 3.063zm-.328-14.219q-1.64 0-2.766 1.203-1.11 1.188-1.375 3.344h7.938v-.203q-.11-2.063-1.11-3.203-1-1.14-2.687-1.14zm19.312-1.922l.094 1.985q1.812-2.282 4.75-2.282 5.016 0 5.062 5.672V847h-2.703v-10.484q-.015-1.72-.797-2.532-.765-.828-2.39-.828-1.313 0-2.313.703-1 .703-1.547 1.844V847h-2.718v-15.844h2.562zm13.719 7.766q0-2.328.922-4.188.922-1.859 2.547-2.859 1.64-1.016 3.734-1.016 3.234 0 5.234 2.25 2 2.235 2 5.953v.188q0 2.313-.89 4.156-.89 1.828-2.547 2.86-1.64 1.03-3.766 1.03-3.234 0-5.234-2.234-2-2.25-2-5.937v-.203zm2.734.328q0 2.64 1.22 4.234 1.218 1.594 3.28 1.594 2.063 0 3.266-1.61 1.219-1.624 1.219-4.546 0-2.594-1.235-4.219-1.234-1.625-3.28-1.625-2.017 0-3.25 1.61-1.22 1.593-1.22 4.562zm18.672-11.938v3.844h2.953v2.094h-2.953v9.828q0 .953.39 1.438.391.468 1.345.468.468 0 1.296-.187V847q-1.078.297-2.078.297-1.828 0-2.75-1.094-.922-1.11-.922-3.125v-9.828h-2.89v-2.094h2.89v-3.843h2.72zm15.86 3.844l.078 1.75q1.75-2.047 4.703-2.047 3.328 0 4.531 2.547.781-1.14 2.047-1.843 1.281-.704 3-.704 5.219 0 5.312 5.516V847h-2.718v-10.453q0-1.703-.782-2.547-.765-.844-2.593-.844-1.516 0-2.516.907-1 .89-1.156 2.421V847h-2.719v-10.39q0-3.454-3.39-3.454-2.657 0-3.641 2.266V847h-2.719v-15.844h2.563zm30.03 16.14q-3.218 0-5.25-2.109-2.015-2.125-2.015-5.671v-.5q0-2.36.906-4.203.907-1.86 2.516-2.907 1.625-1.047 3.516-1.047 3.078 0 4.797 2.032 1.718 2.03 1.718 5.828v1.125H461.26q.047 2.343 1.36 3.797 1.312 1.437 3.343 1.437 1.422 0 2.422-.578 1-.594 1.75-1.563l1.656 1.297q-2 3.063-5.984 3.063zm-.327-14.218q-1.64 0-2.766 1.203-1.11 1.188-1.375 3.344h7.938v-.203q-.11-2.063-1.11-3.203-1-1.14-2.687-1.14zm12.312-1.922l.094 1.985q1.812-2.282 4.75-2.282 5.016 0 5.062 5.672V847h-2.703v-10.484q-.015-1.72-.797-2.532-.765-.828-2.39-.828-1.313 0-2.313.703-1 .703-1.547 1.844V847h-2.718v-15.844h2.562zm18.125-3.843v3.843h2.953v2.094h-2.953v9.828q0 .953.39 1.438.391.468 1.345.468.468 0 1.296-.187V847q-1.078.297-2.078.297-1.828 0-2.75-1.094-.922-1.11-.922-3.125v-9.828h-2.89v-2.094h2.89v-3.843h2.72zM505.181 847h-2.719v-15.844h2.719V847zm-2.938-20.047q0-.672.407-1.125.406-.453 1.187-.453.797 0 1.203.453.422.453.422 1.125 0 .656-.422 1.094-.406.437-1.203.437-.781 0-1.187-.437-.407-.438-.407-1.094zm6.266 11.969q0-2.328.922-4.188.922-1.859 2.547-2.859 1.64-1.016 3.734-1.016 3.235 0 5.235 2.25 2 2.235 2 5.953v.188q0 2.313-.891 4.156-.89 1.828-2.547 2.86-1.64 1.03-3.766 1.03-3.234 0-5.234-2.234-2-2.25-2-5.937v-.203zm2.734.328q0 2.64 1.22 4.234 1.218 1.594 3.28 1.594 2.063 0 3.266-1.61 1.219-1.624 1.219-4.546 0-2.594-1.235-4.219-1.234-1.625-3.28-1.625-2.016 0-3.25 1.61-1.22 1.593-1.22 4.562zm17.547-8.094l.094 1.985q1.813-2.282 4.75-2.282 5.016 0 5.063 5.672V847h-2.704v-10.484q-.015-1.72-.797-2.532-.765-.828-2.39-.828-1.313 0-2.313.703-1 .703-1.547 1.844V847h-2.718v-15.844h2.562zm21.016 16.14q-3.219 0-5.25-2.109-2.016-2.125-2.016-5.671v-.5q0-2.36.907-4.203.906-1.86 2.515-2.907 1.625-1.047 3.516-1.047 3.078 0 4.797 2.032 1.718 2.03 1.718 5.828v1.125H545.26q.047 2.343 1.36 3.797 1.312 1.437 3.343 1.437 1.422 0 2.422-.578 1-.594 1.75-1.563l1.656 1.297q-2 3.063-5.984 3.063zm-.328-14.218q-1.64 0-2.766 1.203-1.11 1.188-1.375 3.344h7.938v-.203q-.11-2.063-1.11-3.203-1-1.14-2.687-1.14zm9.094 5.86q0-3.641 1.718-5.86 1.735-2.219 4.532-2.219 2.796 0 4.421 1.907V824.5h2.703V847h-2.484l-.14-1.703q-1.625 2-4.516 2-2.766 0-4.5-2.25-1.735-2.266-1.735-5.906v-.203zm2.718.312q0 2.703 1.11 4.234 1.109 1.516 3.078 1.516 2.578 0 3.765-2.328v-7.281q-1.218-2.235-3.734-2.235-2 0-3.11 1.547-1.109 1.531-1.109 4.547zm155.56-2.11h-9.25v7.563h10.75V847h-13.562v-21.328h13.406v2.312H707.6v6.86h9.25v2.297zm9.844-.202l3.516-5.782h3.156l-5.188 7.828 5.344 8.016h-3.125l-3.672-5.938L723.07 847h-3.156l5.36-8.016-5.188-7.828h3.125l3.484 5.782zm23.063 2.312q0 3.625-1.657 5.844-1.656 2.203-4.484 2.203-2.875 0-4.531-1.828v7.625h-2.719v-21.938h2.484l.125 1.75q1.657-2.047 4.61-2.047 2.843 0 4.5 2.157 1.672 2.14 1.672 5.984v.25zm-2.703-.313q0-2.671-1.157-4.218-1.14-1.563-3.125-1.563-2.469 0-3.687 2.188v7.562q1.218 2.172 3.718 2.172 1.954 0 3.094-1.547 1.156-1.547 1.156-4.593zm12.89 8.36q-3.219 0-5.25-2.11-2.015-2.125-2.015-5.671v-.5q0-2.36.906-4.203.906-1.86 2.515-2.907 1.625-1.047 3.516-1.047 3.078 0 4.797 2.032 1.719 2.03 1.719 5.828v1.125h-10.735q.047 2.343 1.36 3.797 1.312 1.437 3.343 1.437 1.422 0 2.422-.578 1-.594 1.75-1.563l1.656 1.297q-2 3.063-5.984 3.063zm-.328-14.219q-1.64 0-2.766 1.203-1.109 1.188-1.375 3.344h7.938v-.203q-.11-2.063-1.11-3.203-1-1.14-2.687-1.14zm17.422.5q-.625-.094-1.344-.094-2.656 0-3.61 2.266V847h-2.718v-15.844h2.64l.048 1.828q1.328-2.125 3.78-2.125.782 0 1.204.203v2.516zM782.319 847H779.6v-15.844h2.72V847zm-2.937-20.047q0-.672.406-1.125.406-.453 1.187-.453.797 0 1.203.453.422.453.422 1.125 0 .656-.422 1.094-.406.437-1.203.437-.78 0-1.187-.437-.406-.438-.406-1.094zm13.562 20.344q-3.219 0-5.25-2.11-2.015-2.125-2.015-5.671v-.5q0-2.36.906-4.203.906-1.86 2.515-2.907 1.625-1.047 3.516-1.047 3.078 0 4.797 2.032 1.719 2.03 1.719 5.828v1.125h-10.735q.047 2.343 1.36 3.797 1.312 1.437 3.343 1.437 1.422 0 2.422-.578 1-.594 1.75-1.563l1.656 1.297q-2 3.063-5.984 3.063zm-.328-14.219q-1.64 0-2.766 1.203-1.109 1.188-1.375 3.344h7.938v-.203q-.11-2.063-1.11-3.203-1-1.14-2.687-1.14zm12.313-1.922l.093 1.985q1.813-2.282 4.75-2.282 5.016 0 5.063 5.672V847h-2.703v-10.484q-.016-1.72-.797-2.532-.766-.828-2.39-.828-1.313 0-2.313.703-1 .703-1.547 1.844V847h-2.719v-15.844h2.563zm20.796 13.922q1.453 0 2.532-.875 1.093-.875 1.203-2.203h2.562q-.062 1.36-.937 2.594-.86 1.234-2.313 1.968-1.437.735-3.047.735-3.234 0-5.156-2.156-1.906-2.172-1.906-5.922v-.453q0-2.313.844-4.11.859-1.812 2.437-2.797 1.594-1 3.766-1 2.672 0 4.437 1.594 1.766 1.594 1.875 4.14h-2.562q-.11-1.53-1.157-2.515-1.046-1-2.593-1-2.063 0-3.203 1.5-1.125 1.485-1.125 4.297v.5q0 2.75 1.125 4.234 1.125 1.47 3.218 1.47zm16.22 2.219q-3.22 0-5.25-2.11-2.017-2.125-2.017-5.671v-.5q0-2.36.907-4.203.906-1.86 2.515-2.907 1.625-1.047 3.516-1.047 3.078 0 4.797 2.032 1.719 2.03 1.719 5.828v1.125h-10.735q.047 2.343 1.36 3.797 1.312 1.437 3.343 1.437 1.422 0 2.422-.578 1-.594 1.75-1.563l1.656 1.297q-2 3.063-5.984 3.063zm-.329-14.219q-1.64 0-2.766 1.203-1.109 1.188-1.375 3.344h7.938v-.203q-.11-2.063-1.11-3.203-1-1.14-2.687-1.14zm19.297-1.922l.078 1.75q1.75-2.047 4.703-2.047 3.328 0 4.531 2.547.782-1.14 2.047-1.843 1.281-.704 3-.704 5.219 0 5.313 5.516V847h-2.719v-10.453q0-1.703-.781-2.547-.766-.844-2.594-.844-1.516 0-2.516.907-1 .89-1.156 2.421V847H868.1v-10.39q0-3.454-3.39-3.454-2.657 0-3.64 2.266V847h-2.72v-15.844h2.563zm30.031 16.14q-3.219 0-5.25-2.109-2.015-2.125-2.015-5.671v-.5q0-2.36.906-4.203.906-1.86 2.515-2.907 1.625-1.047 3.516-1.047 3.078 0 4.797 2.032 1.719 2.03 1.719 5.828v1.125h-10.735q.047 2.343 1.36 3.797 1.312 1.437 3.343 1.437 1.422 0 2.422-.578 1-.594 1.75-1.563l1.656 1.297q-2 3.063-5.984 3.063zm-.328-14.218q-1.64 0-2.766 1.203-1.109 1.188-1.375 3.344h7.938v-.203q-.11-2.063-1.11-3.203-1-1.14-2.687-1.14zm12.313-1.922l.093 1.985q1.813-2.282 4.75-2.282 5.016 0 5.063 5.672V847h-2.703v-10.484q-.016-1.72-.797-2.532-.766-.828-2.39-.828-1.313 0-2.313.703-1 .703-1.547 1.844V847h-2.719v-15.844h2.563zm18.125-3.843v3.843h2.953v2.094h-2.953v9.828q0 .953.39 1.438.39.468 1.344.468.469 0 1.297-.187V847q-1.078.297-2.078.297-1.828 0-2.75-1.094-.922-1.11-.922-3.125v-9.828h-2.89v-2.094h2.89v-3.843h2.718zM930.318 847H927.6v-15.844h2.72V847zm-2.937-20.047q0-.672.406-1.125.406-.453 1.187-.453.797 0 1.203.453.422.453.422 1.125 0 .656-.422 1.094-.406.437-1.203.437-.78 0-1.187-.437-.406-.438-.406-1.094zm6.265 11.969q0-2.328.922-4.188.922-1.859 2.547-2.859 1.64-1.016 3.734-1.016 3.235 0 5.235 2.25 2 2.235 2 5.953v.188q0 2.313-.89 4.156-.892 1.828-2.548 2.86-1.64 1.03-3.765 1.03-3.235 0-5.235-2.234-2-2.25-2-5.937v-.203zm2.735.328q0 2.64 1.218 4.234 1.22 1.594 3.282 1.594 2.062 0 3.265-1.61 1.219-1.624 1.219-4.546 0-2.594-1.234-4.219-1.235-1.625-3.282-1.625-2.015 0-3.25 1.61-1.218 1.593-1.218 4.562zm17.547-8.094l.093 1.985q1.813-2.282 4.75-2.282 5.016 0 5.063 5.672V847h-2.703v-10.484q-.016-1.72-.797-2.532-.766-.828-2.39-.828-1.313 0-2.313.703-1 .703-1.547 1.844V847h-2.719v-15.844h2.563zm21.015 16.14q-3.219 0-5.25-2.109-2.015-2.125-2.015-5.671v-.5q0-2.36.906-4.203.906-1.86 2.515-2.907 1.625-1.047 3.516-1.047 3.078 0 4.797 2.032 1.719 2.03 1.719 5.828v1.125h-10.735q.047 2.343 1.36 3.797 1.312 1.437 3.343 1.437 1.422 0 2.422-.578 1-.594 1.75-1.563l1.656 1.297q-2 3.063-5.984 3.063zm-.328-14.218q-1.64 0-2.766 1.203-1.109 1.188-1.375 3.344h7.938v-.203q-.11-2.063-1.11-3.203-1-1.14-2.687-1.14zm9.094 5.86q0-3.641 1.718-5.86 1.735-2.219 4.532-2.219 2.797 0 4.422 1.907V824.5h2.703V847H994.6l-.14-1.703q-1.625 2-4.516 2-2.765 0-4.5-2.25-1.734-2.266-1.734-5.906v-.203zm2.718.312q0 2.703 1.11 4.234 1.11 1.516 3.078 1.516 2.578 0 3.766-2.328v-7.281q-1.22-2.235-3.735-2.235-2 0-3.11 1.547-1.109 1.531-1.109 4.547zM350.172 53.406l6.578 18.563 6.547-18.563h6.922V79h-5.297v-7l.531-12.078L358.547 79h-3.625l-6.89-19.063.53 12.063v7h-5.28V53.406h6.89zm33.531 25.953q-4.187 0-6.812-2.562-2.625-2.578-2.625-6.844v-.5q0-2.86 1.109-5.11 1.11-2.265 3.14-3.484 2.032-1.234 4.626-1.234 3.906 0 6.14 2.469 2.25 2.453 2.25 6.968v2.079h-12.11q.235 1.859 1.47 2.984 1.25 1.125 3.156 1.125 2.922 0 4.578-2.125l2.5 2.797q-1.14 1.625-3.094 2.531-1.953.906-4.328.906zm-.578-15.625q-1.516 0-2.453 1.032-.938 1.015-1.203 2.906h7.062v-.39q-.031-1.688-.906-2.61-.875-.938-2.5-.938zm15.5-3.75l.156 2.188q2.047-2.547 5.469-2.547 3.031 0 4.5 1.781 1.484 1.766 1.516 5.313V79h-5.079V66.828q0-1.61-.703-2.328-.703-.734-2.343-.734-2.141 0-3.22 1.828V79h-5.077V59.984h4.781zm21.406-4.687v4.687h3.25v3.72h-3.25v9.5q0 1.046.406 1.515.407.453 1.547.453.844 0 1.5-.125v3.844q-1.5.468-3.078.468-5.344 0-5.453-5.406v-10.25h-2.781v-3.719h2.781v-4.687h5.078zM431.312 79h-5.093V59.984h5.094V79zm-5.39-23.938q0-1.14.765-1.874.766-.75 2.079-.75 1.296 0 2.062.75.781.734.781 1.874 0 1.157-.78 1.891-.782.734-2.063.734-1.282 0-2.063-.734-.781-.734-.781-1.89zm9.234 14.25q0-2.828 1.094-5.046 1.094-2.22 3.14-3.422 2.048-1.219 4.75-1.219 3.86 0 6.282 2.36 2.437 2.359 2.719 6.39l.03 1.313q0 4.374-2.437 7.03-2.437 2.641-6.562 2.641-4.11 0-6.563-2.64-2.453-2.64-2.453-7.172v-.234zm5.078.376q0 2.703 1.016 4.14 1.031 1.422 2.922 1.422 1.86 0 2.89-1.406 1.032-1.422 1.032-4.531 0-2.657-1.031-4.11-1.032-1.469-2.922-1.469-1.86 0-2.891 1.453-1.016 1.454-1.016 4.5zm20.391-9.704l.156 2.188q2.047-2.547 5.469-2.547 3.031 0 4.5 1.781 1.484 1.766 1.516 5.313V79h-5.079V66.828q0-1.61-.703-2.328-.703-.734-2.343-.734-2.141 0-3.22 1.828V79h-5.077V59.984h4.781zM486.25 73.75q0-.938-.922-1.469-.922-.547-2.953-.969-6.797-1.421-6.797-5.765 0-2.531 2.094-4.219 2.11-1.703 5.5-1.703 3.625 0 5.797 1.703 2.172 1.703 2.172 4.438h-5.079q0-1.094-.703-1.797-.703-.719-2.203-.719-1.281 0-1.984.578-.703.578-.703 1.484 0 .844.797 1.36.796.516 2.687.89 1.906.376 3.219.86 4.015 1.469 4.015 5.11 0 2.609-2.234 4.218-2.219 1.61-5.765 1.61-2.391 0-4.25-.86-1.844-.86-2.907-2.344-1.047-1.484-1.047-3.203h4.813q.078 1.36 1 2.078.937.719 2.5.719 1.469 0 2.203-.547.75-.562.75-1.453zm16.906-4.438q0-2.828 1.094-5.046 1.094-2.22 3.14-3.422 2.048-1.219 4.75-1.219 3.86 0 6.282 2.36 2.437 2.359 2.719 6.39l.03 1.313q0 4.374-2.437 7.03-2.437 2.641-6.562 2.641-4.11 0-6.563-2.64-2.453-2.64-2.453-7.172v-.234zm5.078.376q0 2.703 1.016 4.14 1.031 1.422 2.922 1.422 1.86 0 2.89-1.406 1.032-1.422 1.032-4.531 0-2.657-1.032-4.11-1.03-1.469-2.921-1.469-1.86 0-2.891 1.453-1.016 1.454-1.016 4.5zM525.344 79V63.703h-2.828v-3.719h2.828V58.36q0-3.203 1.828-4.968 1.844-1.766 5.14-1.766 1.063 0 2.594.36l-.062 3.937q-.625-.156-1.547-.156-2.86 0-2.86 2.687v1.531h3.782v3.72h-3.782V79h-5.093zm27.703-7.188l3.515-11.828h5.454l-7.641 21.97-.422 1q-1.703 3.734-5.625 3.734-1.11 0-2.25-.344V82.5l.766.016q1.453 0 2.156-.438.719-.437 1.125-1.453l.594-1.578-6.672-19.063h5.469l3.53 11.828zm19.656 7.547q-4.187 0-6.812-2.562-2.625-2.578-2.625-6.844v-.5q0-2.86 1.109-5.11 1.11-2.265 3.14-3.484 2.032-1.234 4.626-1.234 3.906 0 6.14 2.469 2.25 2.453 2.25 6.968v2.079h-12.11q.235 1.859 1.47 2.984 1.25 1.125 3.156 1.125 2.922 0 4.578-2.125l2.5 2.797q-1.14 1.625-3.094 2.531-1.953.906-4.328.906zm-.578-15.625q-1.516 0-2.453 1.032-.938 1.015-1.203 2.906h7.062v-.39q-.031-1.688-.906-2.61-.875-.938-2.5-.938zM593.969 79q-.344-.688-.5-1.703-1.844 2.062-4.797 2.062-2.797 0-4.64-1.625-1.829-1.625-1.829-4.078 0-3.031 2.235-4.64 2.234-1.625 6.484-1.641h2.328v-1.078q0-1.328-.672-2.11-.672-.796-2.14-.796-1.282 0-2.016.625-.719.609-.719 1.671h-5.078q0-1.64 1.016-3.046 1.015-1.407 2.875-2.203 1.875-.813 4.187-.813 3.516 0 5.578 1.766 2.063 1.765 2.063 4.968v8.25q.031 2.704.765 4.094V79h-5.14zm-4.203-3.531q1.125 0 2.078-.5.953-.5 1.406-1.344v-3.281h-1.89q-3.813 0-4.063 2.64l-.016.297q0 .953.657 1.578.671.61 1.828.61zM612.64 64.75q-1.032-.14-1.828-.14-2.891 0-3.782 1.937V79h-5.078V59.984h4.797l.14 2.266q1.532-2.625 4.235-2.625.844 0 1.578.234l-.062 4.891zm12.609 9q0-.938-.922-1.469-.922-.547-2.953-.969-6.797-1.421-6.797-5.765 0-2.531 2.094-4.219 2.11-1.703 5.5-1.703 3.625 0 5.797 1.703 2.172 1.703 2.172 4.438h-5.078q0-1.094-.704-1.797-.703-.719-2.203-.719-1.281 0-1.984.578-.703.578-.703 1.484 0 .844.797 1.36.797.516 2.687.89 1.906.376 3.219.86 4.015 1.469 4.015 5.11 0 2.609-2.234 4.218-2.219 1.61-5.765 1.61-2.391 0-4.25-.86-1.844-.86-2.907-2.344-1.047-1.484-1.047-3.203h4.813q.078 1.36 1 2.078.937.719 2.5.719 1.469 0 2.203-.547.75-.562.75-1.453zm16.906-4.438q0-2.828 1.094-5.046 1.094-2.22 3.14-3.422 2.048-1.219 4.75-1.219 3.86 0 6.282 2.36 2.437 2.359 2.719 6.39l.03 1.313q0 4.374-2.437 7.03-2.437 2.641-6.562 2.641-4.11 0-6.563-2.64-2.453-2.64-2.453-7.172v-.234zm5.078.376q0 2.703 1.016 4.14 1.031 1.422 2.922 1.422 1.86 0 2.89-1.406 1.032-1.422 1.032-4.531 0-2.657-1.032-4.11-1.03-1.469-2.921-1.469-1.86 0-2.891 1.453-1.016 1.454-1.016 4.5zM664.344 79V63.703h-2.828v-3.719h2.828V58.36q0-3.203 1.828-4.968 1.844-1.766 5.14-1.766 1.063 0 2.594.36l-.062 3.937q-.625-.156-1.547-.156-2.86 0-2.86 2.687v1.531h3.782v3.72h-3.782V79h-5.093zm29.36.36q-4.188 0-6.813-2.563-2.625-2.578-2.625-6.844v-.5q0-2.86 1.109-5.11 1.11-2.265 3.14-3.484 2.032-1.234 4.626-1.234 3.906 0 6.14 2.469 2.25 2.453 2.25 6.968v2.079h-12.11q.235 1.859 1.47 2.984 1.25 1.125 3.156 1.125 2.922 0 4.578-2.125l2.5 2.797q-1.14 1.625-3.094 2.531-1.953.906-4.328.906zm-.579-15.626q-1.516 0-2.453 1.032-.938 1.015-1.203 2.906h7.062v-.39q-.031-1.688-.906-2.61-.875-.938-2.5-.938zm18.063 1.922l3.203-5.672h5.437l-5.422 9.313 5.64 9.703h-5.437l-3.39-5.984L707.844 79h-5.469l5.64-9.703-5.406-9.313h5.453l3.125 5.672zm27.89 4.016q0 4.39-2 7.047-2 2.64-5.39 2.64-2.875 0-4.657-2.015v8.969h-5.078v-26.33h4.703l.188 1.86q1.843-2.219 4.812-2.219 3.516 0 5.469 2.61 1.953 2.593 1.953 7.171v.266zM734 69.297q0-2.656-.953-4.094-.938-1.437-2.735-1.437-2.39 0-3.28 1.828v7.781q.937 1.875 3.327 1.875 3.641 0 3.641-5.953zm16.703 10.062q-4.187 0-6.812-2.562-2.625-2.578-2.625-6.844v-.5q0-2.86 1.109-5.11 1.11-2.265 3.14-3.484 2.032-1.234 4.626-1.234 3.906 0 6.14 2.469 2.25 2.453 2.25 6.968v2.079h-12.11q.235 1.859 1.47 2.984 1.25 1.125 3.156 1.125 2.922 0 4.578-2.125l2.5 2.797q-1.14 1.625-3.094 2.531-1.953.906-4.328.906zm-.578-15.625q-1.516 0-2.453 1.032-.938 1.015-1.203 2.906h7.062v-.39q-.031-1.688-.906-2.61-.875-.938-2.5-.938zm21.516 1.016q-1.032-.14-1.828-.14-2.891 0-3.782 1.937V79h-5.078V59.984h4.797l.14 2.266q1.532-2.625 4.235-2.625.844 0 1.578.234l-.062 4.891zM779.313 79h-5.094V59.984h5.093V79zm-5.391-23.938q0-1.14.765-1.874.766-.75 2.079-.75 1.297 0 2.062.75.781.734.781 1.874 0 1.157-.78 1.891-.782.734-2.063.734-1.282 0-2.063-.734-.781-.734-.781-1.89zm18.781 24.297q-4.187 0-6.812-2.562-2.625-2.578-2.625-6.844v-.5q0-2.86 1.109-5.11 1.11-2.265 3.14-3.484 2.032-1.234 4.626-1.234 3.906 0 6.14 2.469 2.25 2.453 2.25 6.968v2.079h-12.11q.235 1.859 1.47 2.984 1.25 1.125 3.156 1.125 2.922 0 4.578-2.125l2.5 2.797q-1.14 1.625-3.094 2.531-1.953.906-4.328.906zm-.578-15.625q-1.516 0-2.453 1.032-.938 1.015-1.203 2.906h7.062v-.39q-.031-1.688-.906-2.61-.875-.938-2.5-.938zm15.5-3.75l.156 2.188q2.047-2.547 5.469-2.547 3.031 0 4.5 1.781 1.484 1.766 1.516 5.313V79h-5.078V66.828q0-1.61-.704-2.328-.703-.734-2.343-.734-2.141 0-3.22 1.828V79h-5.077V59.984h4.781zm23.234 15.266q1.407 0 2.282-.766.89-.78.922-2.062h4.765q-.015 1.937-1.062 3.547-1.032 1.61-2.844 2.5-1.797.89-3.969.89-4.078 0-6.437-2.593-2.36-2.594-2.36-7.172v-.328q0-4.407 2.344-7.016 2.344-2.625 6.422-2.625 3.562 0 5.719 2.031 2.156 2.032 2.187 5.407h-4.765q-.032-1.47-.922-2.391-.875-.938-2.313-.938-1.781 0-2.687 1.297-.907 1.297-.907 4.188v.531q0 2.938.891 4.219.906 1.281 2.734 1.281zm19.844 4.11q-4.187 0-6.812-2.563-2.625-2.578-2.625-6.844v-.5q0-2.86 1.109-5.11 1.11-2.265 3.14-3.484 2.032-1.234 4.626-1.234 3.906 0 6.14 2.469 2.25 2.453 2.25 6.968v2.079h-12.11q.235 1.859 1.47 2.984 1.25 1.125 3.156 1.125 2.922 0 4.578-2.125l2.5 2.797q-1.14 1.625-3.094 2.531-1.953.906-4.328.906zm-.578-15.626q-1.516 0-2.453 1.032-.938 1.015-1.203 2.906h7.062v-.39q-.031-1.688-.906-2.61-.875-.938-2.5-.938z"></path></svg>